<?xml version="1.0" encoding="UTF-8" standalone="no"?>
<!-- Created with Inkscape (http://www.inkscape.org/) -->

<svg
   xmlns:dc="http://purl.org/dc/elements/1.1/"
   xmlns:cc="http://creativecommons.org/ns#"
   xmlns:rdf="http://www.w3.org/1999/02/22-rdf-syntax-ns#"
   xmlns:svg="http://www.w3.org/2000/svg"
   xmlns="http://www.w3.org/2000/svg"
   xmlns:sodipodi="http://sodipodi.sourceforge.net/DTD/sodipodi-0.dtd"
   xmlns:inkscape="http://www.inkscape.org/namespaces/inkscape"
   width="58.704174"
   height="57.884193"
   id="svg3091"
   version="1.1"
   inkscape:version="0.48.5 r10040"
   sodipodi:docname="whiteFace.svg"
   inkscape:export-filename="/Users/pierre/Documents/Code/momentics/Hg10/assets/images/blackFace.png"
   inkscape:export-xdpi="147.80058"
   inkscape:export-ydpi="147.80058">
  <defs
     id="defs3093" />
  <sodipodi:namedview
     id="base"
     pagecolor="#ffffff"
     bordercolor="#666666"
     borderopacity="1.0"
     inkscape:pageopacity="0.0"
     inkscape:pageshadow="2"
     inkscape:zoom="5.6"
     inkscape:cx="39.104776"
     inkscape:cy="23.037553"
     inkscape:document-units="px"
     inkscape:current-layer="layer1"
     showgrid="false"
     fit-margin-top="0"
     fit-margin-left="0"
     fit-margin-right="0"
     fit-margin-bottom="0"
     inkscape:window-width="1773"
     inkscape:window-height="883"
     inkscape:window-x="501"
     inkscape:window-y="423"
     inkscape:window-maximized="0" />
  <metadata
     id="metadata3096">
    <rdf:RDF>
      <cc:Work
         rdf:about="">
        <dc:format>image/svg+xml</dc:format>
        <dc:type
           rdf:resource="http://purl.org/dc/dcmitype/StillImage" />
        <dc:title></dc:title>
      </cc:Work>
    </rdf:RDF>
  </metadata>
  <g
     inkscape:label="Layer 1"
     inkscape:groupmode="layer"
     id="layer1"
     transform="translate(-433.50506,-474.84866)">
    <rect
       style="fill:#f5f5f5;fill-opacity:1;fill-rule:nonzero;stroke:none"
       id="rect3818"
       width="60.714283"
       height="60.892857"
       x="-1.25"
       y="-2.1158066"
       transform="translate(433.50506,474.84866)" />
    <path
       sodipodi:type="arc"
       style="fill:#000000;fill-opacity:1;stroke:none"
       id="path3082-8-5"
       sodipodi:cx="182.56644"
       sodipodi:cy="260.00201"
       sodipodi:rx="24.630424"
       sodipodi:ry="24.286386"
       d="m 207.19686,260.00201 c 0,13.41301 -11.02742,24.28639 -24.63042,24.28639 -13.60301,0 -24.63043,-10.87338 -24.63043,-24.28639 0,-13.413 11.02742,-24.28638 24.63043,-24.28638 13.603,0 24.63042,10.87338 24.63042,24.28638 z"
       transform="matrix(1.1917004,0,0,1.1917004,245.29265,193.94625)" />
    <path
       style="fill:#f5f5f5;fill-opacity:1;stroke:none"
       d="m 446.50762,489.48252 -4.06845,0 c -0.22298,4.49585 3.87973,9.19138 8.89971,9.154 4.76997,-0.025 9.16586,-4.58885 9.06924,-9.32352 l -4.23796,0.0848 c -0.69158,2.20496 -1.51097,4.59003 -4.74651,4.66178 -1.72358,-0.11964 -4.16037,-0.96272 -4.91603,-4.57701 z"
       id="path3084-8-4"
       inkscape:connector-curvature="0"
       sodipodi:nodetypes="ccccccc" />
    <path
       style="fill:#f5f5f5;fill-opacity:1;stroke:none"
       d="m 469.31139,489.39765 -4.06843,0 c -0.22299,4.49583 3.87972,9.19138 8.89971,9.154 4.76996,-0.025 9.16586,-4.58887 9.06924,-9.32352 l -4.23797,0.0848 c -0.69159,2.20496 -1.51098,4.59002 -4.74651,4.66176 -1.7236,-0.11964 -4.16037,-0.96272 -4.91604,-4.57699 z"
       id="path3084-0-2-3"
       inkscape:connector-curvature="0"
       sodipodi:nodetypes="ccccccc" />
    <path
       sodipodi:type="arc"
       style="fill:#f5f5f5;fill-opacity:1;stroke:none"
       id="path3872-4-1"
       sodipodi:cx="178.274"
       sodipodi:cy="268.79279"
       sodipodi:rx="9.9082499"
       sodipodi:ry="9.535759"
       d="m 188.18225,268.79279 c 0,5.26645 -4.43607,9.53575 -9.90825,9.53575 -5.47217,0 -9.90825,-4.2693 -9.90825,-9.53575 0,-5.26646 4.43608,-9.53576 9.90825,-9.53576 5.47218,0 9.90825,4.2693 9.90825,9.53576 z"
       transform="matrix(1.1548449,0,0,1.199956,256.22112,193.23083)" />
    <path
       sodipodi:type="arc"
       style="fill:#000000;fill-opacity:1;stroke:none"
       id="path3872-9-5-2"
       sodipodi:cx="178.274"
       sodipodi:cy="268.79279"
       sodipodi:rx="3.8899057"
       sodipodi:ry="3.8849387"
       d="m 182.16391,268.79279 c 0,2.14559 -1.74157,3.88493 -3.88991,3.88493 -2.14833,0 -3.8899,-1.73934 -3.8899,-3.88493 0,-2.1456 1.74157,-3.88494 3.8899,-3.88494 2.14834,0 3.88991,1.73934 3.88991,3.88494 z"
       transform="matrix(1.8085306,0,0,1.7453905,139.64817,46.946)" />
  </g>
</svg>
